
    <svg data-name="Layer 1" xmlns="http://www.w3.org/2000/svg" viewBox="0 0 100 100"> <path fill="#fcfcfa" fill-rule="evenodd" d="M62.64,71.87l-8.58-.33v.8l8.58-.47h0Zm-10.61-1.95l.54,1.16,1.26,.15-.94,.87,.25,1.25-1.12-.62-1.11,.62,.25-1.25-.93-.86,1.27-.15,.53-1.16h0Zm-10.61,1.95l8.58-.33v.8l-8.58-.47Z"></path> <path fill="#b73125" fill-rule="evenodd" d="M61.81,83.91c-2.2,1.57-4.25,1.5-4.87,1.73l-1.36,.79-.1-.39c2.67-1.65,.03-4.57,3.82-6.78,1.31-.76,3.11-1.68,4.42-2.43,1.95-1.12,1.76-2.31,2.56-3.6,.34,1.24-2.57,9.55-4.47,10.67h0Zm8.32-65.02c-.37-.69-.37-1.65-1.82-2.06-.72-.2-1.68-.41-2.4-.6-1.07-.29-1.12-.88-1.66-1.39,0,.63,2.4,4.21,3.45,4.51,1.24,.47,2.2,.18,2.52,.22l.07,.02c1.85,1.31,3.57,2.78,5.15,4.41,6.51,6.73,10.54,16.02,10.54,26.28s-4.03,19.56-10.54,26.28c-6.51,6.73-15.51,10.88-25.45,10.88s-18.94-4.16-25.45-10.88c-6.51-6.73-10.54-16.02-10.54-26.28s4.03-19.56,10.54-26.28c1.57-1.63,3.29-3.1,5.13-4.4l.1-.03c.32-.04,1.28,.26,2.52-.22,1.04-.3,3.46-3.87,3.45-4.51-.54,.51-.59,1.1-1.66,1.39-.71,.19-1.68,.4-2.4,.6-1.44,.4-1.45,1.35-1.81,2.04-2.04,1.4-3.94,3-5.67,4.79-6.6,6.81-10.68,16.22-10.68,26.62s4.08,19.8,10.68,26.62c6.6,6.81,15.72,11.03,25.79,11.03s19.19-4.21,25.79-11.03c6.6-6.81,10.68-16.22,10.68-26.62s-4.08-19.81-10.68-26.62c-1.72-1.78-3.61-3.37-5.65-4.77h0Zm-14.86,75.96c.75,0,1.36-.61,1.36-1.36s-.61-1.36-1.36-1.36-1.37,.61-1.37,1.36,.61,1.36,1.37,1.36h0Zm-10.52,0c.75,0,1.36-.61,1.36-1.36s-.61-1.36-1.36-1.36-1.36,.61-1.36,1.36,.61,1.36,1.36,1.36h0Zm5.35,.53c1.32,0,2.39-1.07,2.39-2.39s-1.07-2.39-2.39-2.39-2.39,1.07-2.39,2.39,1.07,2.39,2.39,2.39h0ZM29.67,21.51c.95-.54,5.22,.25,5.66,.7-.75,.02-1.21-.35-2.17,.21-.64,.37-1.48,.92-2.12,1.3-1.88,1.08-2.48-.77-3.84-.03l-.14-.14,.67-.39c.25-.21,.72-1.1,1.94-1.66h0Zm-.76-3.51c-.73,1.11-1.68,1.43-1.92,1.65l-.48,.6-.11-.16c.93-1.23-.79-2.1,.55-3.77,.47-.58,1.13-1.32,1.59-1.89,.7-.86,.4-1.37,.54-2.1,.38,.51,.51,4.82-.17,5.67h0Zm-5.07,3.88c-.82,1.24-1.87,1.6-2.14,1.84l-.54,.67-.13-.18c1.04-1.37-.89-2.34,.62-4.21,.52-.65,1.26-1.47,1.78-2.11,.78-.96,.45-1.53,.6-2.34,.42,.57,.57,5.38-.19,6.33h0Zm.12,4.39c.93-.95,6.22-1.44,6.89-1.06-.87,.28-1.54,0-2.48,.97-.63,.65-1.43,1.57-2.07,2.23-1.84,1.9-3.17-.07-4.52,1.25l-.21-.12,.66-.68c.23-.33,.48-1.53,1.72-2.59h0Zm-4.46-.61c-.46,1.65-1.5,2.43-1.72,2.79l-.35,.93-.2-.15c.66-1.88-1.8-2.27-.8-4.87,.35-.9,.87-2.06,1.22-2.95,.52-1.33-.05-1.84-.17-2.8,.66,.47,2.52,5.74,2.03,7.05h0Zm-3.11,5.06c.02,1.95-.87,3.12-.99,3.59l-.09,1.13-.27-.1c.13-2.26-2.69-1.9-2.42-5.05,.09-1.09,.3-2.53,.39-3.61,.14-1.62-.64-2-1.07-3,.87,.31,4.58,5.46,4.45,7.05h0Zm2.52,2.75c.77-1.36,6.6-3.53,7.48-3.3-.9,.58-1.74,.46-2.51,1.85-.51,.93-1.14,2.22-1.66,3.16-1.51,2.71-3.61,.88-4.74,2.79l-.28-.07,.54-.97c.16-.44,.08-1.89,1.16-3.46h0Zm-5.76,3.09c.47,1.87-.11,3.2-.11,3.67l.17,1.1-.28-.03c-.4-2.2-3.02-1.2-3.5-4.28-.17-1.07-.31-2.49-.47-3.55-.24-1.58-1.07-1.77-1.72-2.63,.91,.09,5.66,4.17,5.91,5.72h0Zm2.95,6.11c.38-1.51,5.45-5.13,6.36-5.14-.72,.79-1.56,.9-1.94,2.45-.25,1.04-.52,2.44-.78,3.48-.75,3.01-3.25,1.79-3.85,3.93h-.28s.27-1.07,.27-1.07c.04-.47-.42-1.84,.22-3.64h0Zm-4.61,.3c-.58-1.46-6.09-4.42-7-4.31,.82,.7,1.67,.7,2.25,2.19,.38,1,.83,2.36,1.22,3.37,1.13,2.91,3.47,1.37,4.34,3.43l.28-.03-.41-1.04c-.1-.46,.18-1.89-.68-3.61h0Zm-1.19,6.72c1.4,1.54,1.53,3.12,1.76,3.57l.73,.97-.29,.11c-1.51-1.9-3.5,.39-5.53-2.32-.7-.94-1.56-2.23-2.26-3.17-1.04-1.4-1.93-1.14-2.99-1.64,.92-.38,7.55,1.11,8.58,2.47h0Zm5.2,2.61c-.03-1.69,4.24-6.9,5.18-7.17-.53,1.03-1.38,1.38-1.33,3.1,.03,1.15,.15,2.69,.17,3.85,.07,3.35-2.88,2.79-2.9,5.19l-.29,.09-.02-1.2c-.09-.5-.96-1.8-.81-3.86h0Zm-3.73,5.13c1.61,1.77,1.75,3.58,2.03,4.1l.84,1.11-.33,.13c-1.73-2.18-4.02,.45-6.35-2.66-.81-1.07-1.8-2.56-2.59-3.63-1.19-1.6-2.21-1.31-3.43-1.88,1.05-.43,8.66,1.27,9.84,2.83h0Zm5.72,5.89c-.39-1.71,2.81-7.9,3.71-8.37-.31,1.16-1.1,1.69-.68,3.43,.28,1.16,.73,2.69,1,3.86,.79,3.38-2.32,3.45-1.82,5.88l-.28,.15-.28-1.21c-.2-.49-1.36-1.62-1.65-3.74h0Zm-3.56,1.57c1.93,1.42,2.43,3.16,2.8,3.62l1.04,.92-.3,.19c-2.12-1.79-3.85,1.23-6.75-1.35-1-.89-2.27-2.16-3.26-3.05-1.48-1.33-2.43-.85-3.73-1.16,.95-.63,8.74-.47,10.21,.83h0Zm2.89,6.82c2.15,1.05,2.95,2.68,3.4,3.06l1.19,.72-.26,.24c-2.41-1.38-3.57,1.9-6.89-.12-1.15-.7-2.62-1.72-3.75-2.42-1.7-1.05-2.54-.4-3.88-.47,.82-.79,8.52-2.02,10.19-1.01h0Zm5.35,6.19c2.58,.82,3.74,2.51,4.3,2.87l1.45,.61-.25,.31c-2.92-1.15-3.68,2.71-7.72,.99-1.4-.59-3.21-1.49-4.59-2.09-2.07-.89-2.91-.03-4.42,.1,.79-1.02,9.19-3.65,11.23-2.8h0Zm-.69-8.39c-.43-1.9,3.12-8.79,4.13-9.32-.35,1.29-1.22,1.89-.76,3.82,.31,1.29,.81,3,1.12,4.3,.88,3.76-2.58,3.84-2.03,6.55l-.31,.17-.31-1.35c-.22-.54-1.51-1.8-1.83-4.16h0Zm7.78,13.81c2.68,.37,4.11,1.83,4.73,2.08l1.53,.35-.19,.35c-3.08-.63-3.16,3.3-7.43,2.3-1.48-.35-3.41-.92-4.88-1.27-2.19-.52-2.87,.47-4.33,.86,.6-1.14,8.42-5.18,10.58-4.69h0Zm-.94-4.79c-1.37-1.38-1.97-9.12-1.4-10.1,.39,1.28-.05,2.25,1.36,3.65,.94,.94,2.27,2.12,3.21,3.06,2.73,2.74-.18,4.62,1.72,6.63l-.17,.31-.98-.98c-.48-.34-2.23-.74-3.75-2.57h0Zm9.61,8.45c2.7-.12,4.37,1.06,5.02,1.2l1.57,.07-.13,.38c-3.14-.07-2.52,3.82-6.9,3.6-1.52-.08-3.52-.29-5.03-.37-2.25-.12-2.74,.98-4.11,1.63,.39-1.23,7.36-6.61,9.57-6.51h0Zm.24-3.04c-1.91-1.12-4.82-9.43-4.47-10.67,.8,1.29,.6,2.48,2.56,3.6,1.31,.75,3.11,1.67,4.42,2.43,3.79,2.21,1.15,5.13,3.82,6.78l-.1,.39-1.36-.79c-.62-.24-2.67-.16-4.87-1.73h0ZM70.33,21.51c1.21,.56,1.68,1.45,1.94,1.66l.67,.39-.14,.14c-1.36-.74-1.96,1.11-3.84,.03-.65-.37-1.48-.92-2.12-1.3-.96-.56-1.42-.19-2.17-.21,.45-.45,4.72-1.24,5.66-.7h0Zm.76-3.51c-.67-.85-.54-5.16-.17-5.67,.14,.73-.16,1.24,.54,2.1,.47,.57,1.13,1.31,1.59,1.89,1.35,1.68-.38,2.55,.55,3.77l-.11,.16-.48-.6c-.24-.22-1.19-.54-1.92-1.65h0Zm5.07,3.88c-.75-.95-.61-5.76-.19-6.33,.15,.82-.18,1.38,.6,2.34,.52,.64,1.26,1.46,1.78,2.11,1.5,1.87-.42,2.84,.62,4.21l-.13,.18-.54-.67c-.27-.24-1.33-.6-2.14-1.84h0Zm-.13,4.39c1.24,1.06,1.5,2.26,1.72,2.59l.66,.68-.21,.12c-1.36-1.32-2.68,.65-4.52-1.25-.64-.66-1.44-1.58-2.07-2.23-.94-.98-1.61-.69-2.48-.97,.67-.38,5.96,.11,6.89,1.06h0Zm4.46-.61c-.5-1.31,1.36-6.57,2.03-7.05-.12,.95-.69,1.46-.17,2.8,.35,.89,.87,2.06,1.22,2.95,1,2.6-1.47,2.99-.8,4.87l-.2,.15-.36-.93c-.21-.36-1.25-1.14-1.72-2.79h0Zm3.11,5.06c-.12-1.59,3.58-6.74,4.45-7.05-.43,1-1.21,1.38-1.07,3,.1,1.08,.3,2.52,.39,3.61,.26,3.15-2.55,2.79-2.43,5.05l-.27,.1-.09-1.13c-.12-.46-1.01-1.64-.99-3.59h0Zm-2.52,2.75c1.08,1.58,1,3.02,1.16,3.46l.54,.97-.28,.07c-1.13-1.91-3.23-.08-4.74-2.79-.52-.94-1.14-2.22-1.66-3.16-.77-1.39-1.61-1.28-2.51-1.85,.88-.23,6.72,1.94,7.48,3.3h0Zm5.75,3.09c.25-1.55,5-5.63,5.91-5.72-.65,.86-1.49,1.04-1.72,2.63-.16,1.06-.3,2.49-.47,3.55-.48,3.08-3.09,2.09-3.5,4.28l-.28,.03,.17-1.1c0-.47-.58-1.8-.11-3.67h0Zm-2.95,6.11c.63,1.8,.18,3.18,.21,3.64l.27,1.08h-.28c-.59-2.15-3.1-.93-3.85-3.94-.26-1.04-.52-2.44-.78-3.48-.38-1.55-1.22-1.65-1.94-2.45,.91,.01,5.97,3.63,6.36,5.14h0Zm4.6,.3c-.86,1.72-.58,3.15-.68,3.61l-.41,1.04,.28,.03c.87-2.06,3.21-.52,4.34-3.43,.39-1,.84-2.37,1.22-3.37,.58-1.5,1.43-1.49,2.25-2.19-.91-.11-6.42,2.85-7,4.31h0Zm1.19,6.72c1.03-1.36,7.66-2.84,8.58-2.47-1.06,.49-1.95,.24-2.99,1.64-.69,.93-1.55,2.23-2.26,3.17-2.03,2.71-4.03,.42-5.53,2.32l-.29-.11,.73-.97c.24-.45,.36-2.03,1.76-3.57h0Zm-5.2,2.61c.15,2.06-.72,3.37-.81,3.86l-.02,1.2-.29-.09c-.02-2.4-2.97-1.84-2.9-5.19,.02-1.16,.14-2.7,.17-3.85,.04-1.72-.81-2.07-1.33-3.1,.95,.27,5.21,5.48,5.18,7.17h0Zm3.73,5.13c1.18-1.56,8.79-3.26,9.84-2.83-1.22,.57-2.24,.28-3.43,1.88-.8,1.07-1.78,2.56-2.59,3.63-2.33,3.11-4.62,.48-6.35,2.66l-.33-.13,.84-1.11c.27-.52,.41-2.33,2.03-4.1h0Zm-5.72,5.89c-.29,2.12-1.45,3.25-1.65,3.74l-.28,1.21-.28-.15c.5-2.43-2.62-2.5-1.82-5.88,.27-1.17,.73-2.7,1-3.86,.41-1.73-.37-2.27-.68-3.43,.9,.48,4.1,6.67,3.71,8.37h0Zm3.56,1.57c1.47-1.3,9.26-1.46,10.21-.83-1.3,.31-2.25-.17-3.74,1.16-.99,.89-2.26,2.16-3.26,3.05-2.9,2.59-4.63-.44-6.75,1.35l-.3-.19,1.04-.92c.37-.46,.87-2.2,2.8-3.62h0Zm-2.89,6.82c1.68-1.01,9.37,.22,10.19,1.01-1.34,.08-2.18-.57-3.88,.47-1.14,.7-2.61,1.72-3.75,2.42-3.32,2.03-4.47-1.26-6.89,.12l-.26-.24,1.19-.72c.45-.38,1.25-2.01,3.4-3.06h0Zm-5.35,6.19c2.04-.86,10.44,1.78,11.23,2.8-1.51-.14-2.35-1-4.42-.1-1.38,.6-3.19,1.5-4.59,2.09-4.04,1.72-4.8-2.14-7.72-.99l-.25-.31,1.45-.61c.56-.36,1.72-2.04,4.3-2.87h0Zm.69-8.39c-.32,2.36-1.61,3.62-1.83,4.16l-.31,1.35-.31-.17c.56-2.71-2.91-2.78-2.03-6.55,.3-1.3,.81-3.01,1.12-4.3,.46-1.93-.41-2.53-.76-3.82,1,.53,4.56,7.42,4.13,9.32h0Zm-7.78,13.81c-2.68,.37-4.11,1.83-4.73,2.08l-1.53,.35,.19,.35c3.08-.63,3.16,3.3,7.43,2.3,1.48-.35,3.41-.92,4.88-1.27,2.19-.52,2.87,.47,4.33,.86-.6-1.14-8.42-5.18-10.58-4.69h0Zm.94-4.79c1.37-1.38,1.97-9.12,1.4-10.1-.38,1.28,.05,2.25-1.36,3.65-.94,.94-2.27,2.12-3.21,3.06-2.73,2.74,.18,4.62-1.72,6.63l.17,.31,.98-.98c.48-.34,2.23-.74,3.75-2.57h0Zm-9.61,8.45c2.21-.1,9.18,5.28,9.57,6.51-1.37-.65-1.86-1.75-4.11-1.63-1.5,.08-3.51,.3-5.03,.37-4.38,.22-3.76-3.67-6.9-3.6l-.13-.38,1.57-.07c.65-.14,2.32-1.32,5.02-1.2Z"></path> <g> <path fill="none" stroke="#353536" stroke-width="1.42px" stroke-miterlimit="2.61" fill-rule="evenodd" d="M50,11.01l-27.63,7.34V59.62c0,4.25,2.97,8.66,7.08,12.71,6.18,6.08,14.85,11.22,20.55,14.13,5.7-2.91,14.36-8.06,20.54-14.13,4.12-4.05,7.09-8.46,7.09-12.71V18.35l-27.63-7.34h0Zm-30.68,3.12h0l30.06-7.99h1.24l30.07,7.99,1.82,.48V59.62c0,5.75-3.58,11.28-8.56,16.17-7.04,6.92-16.95,12.64-22.88,15.57l-1.08,.53-1.08-.53c-5.93-2.94-15.85-8.66-22.88-15.57-4.97-4.89-8.55-10.42-8.55-16.17V14.61l1.82-.48Z"></path> <path fill="#fff" stroke="#b73125" stroke-width="1.42px" stroke-miterlimit="2.61" fill-rule="evenodd" d="M50,86.46c5.7-2.91,14.36-8.06,20.54-14.13,4.12-4.05,7.09-8.46,7.09-12.71V18.35l-27.63-7.34V6.14h.62l30.07,7.99,1.82,.48V59.62c0,5.75-3.58,11.28-8.56,16.17-7.04,6.92-16.95,12.64-22.88,15.57l-1.07,.53v-5.43Zm0-75.45l-27.63,7.34V59.62c0,4.25,2.97,8.66,7.08,12.71,6.18,6.08,14.85,11.22,20.55,14.13h0s0,5.43,0,5.43h0s-1.08-.53-1.08-.53c-5.93-2.94-15.85-8.66-22.88-15.57-4.97-4.89-8.55-10.42-8.55-16.17V14.61l1.82-.48h0l30.06-7.99h.62v4.87h0Z"></path> </g> <path fill="#b73125" fill-rule="evenodd" d="M50,8.49l-30.06,7.99V59.62c0,12.5,20.43,24.79,30.06,29.56,9.63-4.76,30.07-17.08,30.07-29.56V16.48l-30.07-7.99Z"></path> <path fill="#fcfcfa" fill-rule="evenodd" d="M58.74,17.27l-7.07-.27v.66l7.07-.39h0Zm-8.74-1.6l.44,.96,1.04,.12-.77,.72,.2,1.03-.92-.51-.91,.51,.2-1.03-.77-.71,1.05-.13,.44-.95h0Zm-8.74,1.6l7.07-.27v.66l-7.07-.39Z"></path> <path fill="#fcfcfa" fill-rule="evenodd" d="M58.74,72.63l-7.07-.27v.66l7.07-.39h0Zm-8.74-1.6l.44,.96,1.04,.12-.77,.72,.2,1.03-.92-.51-.91,.51,.2-1.03-.77-.71,1.05-.13,.44-.95h0Zm-8.74,1.6l7.07-.27v.66l-7.07-.39Z"></path> <g> <path fill="#fff" d="M33.12,51.11v.49l-2.51,.25v-.54c0-1.18-.44-1.72-1.35-1.72-.76,0-1.3,.42-1.3,1.4v.37c0,.96,.49,1.75,2.19,3.3,2.32,2.14,3.1,3.55,3.1,5.54v.84c0,2.54-1.6,3.87-3.99,3.87s-4.04-1.4-4.04-3.94v-1.13l2.51-.25v1.18c0,1.16,.54,1.72,1.48,1.72,.79,0,1.43-.42,1.43-1.65v-.54c0-1.08-.49-1.87-2.19-3.42-2.32-2.14-3.1-3.55-3.1-5.42v-.42c0-2.54,1.48-3.87,3.89-3.87s3.89,1.4,3.89,3.94Z"></path> <path fill="#fff" d="M36.54,49.83v4.88h3.82v2.41h-3.82v5.12h4.73v2.41h-7.34v-17.24h7.34v2.41h-4.73Z"></path> <path fill="#fff" d="M49.47,62.19v2.46h-6.97v-17.24h2.61v14.78h4.36Z"></path> <path fill="#fff" d="M57.13,62.19v2.46h-6.97v-17.24h2.61v14.78h4.36Z"></path> <path fill="#fff" d="M60.43,49.83v4.88h3.82v2.41h-3.82v5.12h4.73v2.41h-7.34v-17.24h7.34v2.41h-4.73Z"></path> <path fill="#fff" d="M69.96,57.37h-1.21v7.29h-2.61v-17.24h3.77c2.81,0,4.33,1.53,4.33,4.36v1.23c0,1.82-.64,3.1-1.85,3.79l2.39,7.86h-2.76l-2.07-7.29Zm-1.21-2.41h1.06c1.26,0,1.82-.67,1.82-2.12v-.89c0-1.45-.57-2.12-1.82-2.12h-1.06v5.12Z"></path> </g> <g> <path fill="#fff" d="M37.33,27.43c2.71,0,4.16,1.53,4.16,4.36v.32c0,1.92-.57,3.05-1.95,3.52v.05c1.62,.49,2.31,1.77,2.31,4.04v.59c0,2.83-1.53,4.36-4.33,4.36h-3.84V27.43h3.65Zm-1.03,7.12h.81c1.26,0,1.77-.64,1.77-2.09v-.57c0-1.4-.52-2.04-1.65-2.04h-.94v4.7Zm0,7.71h1.13c1.26,0,1.82-.67,1.82-2.12v-.96c0-1.53-.57-2.22-1.95-2.22h-1.01v5.29Z"></path> <path fill="#fff" d="M45.58,29.84v4.88h3.82v2.41h-3.82v5.12h4.73v2.41h-7.34V27.43h7.34v2.41h-4.73Z"></path> <path fill="#fff" d="M58.51,31.12v.49l-2.51,.25v-.54c0-1.18-.44-1.72-1.35-1.72-.76,0-1.3,.42-1.3,1.4v.37c0,.96,.49,1.75,2.19,3.3,2.32,2.14,3.1,3.55,3.1,5.54v.84c0,2.54-1.6,3.87-3.99,3.87s-4.04-1.4-4.04-3.94v-1.13l2.51-.25v1.18c0,1.16,.54,1.72,1.48,1.72,.79,0,1.43-.42,1.43-1.65v-.54c0-1.08-.49-1.87-2.19-3.42-2.32-2.14-3.1-3.55-3.1-5.42v-.42c0-2.54,1.48-3.87,3.89-3.87s3.89,1.4,3.89,3.94Z"></path> <path fill="#fff" d="M64.52,29.89v14.78h-2.61v-14.78h-2.78v-2.46h8.18v2.46h-2.78Z"></path> </g></svg>
